<svg xmlns="http://www.w3.org/2000/svg" viewBox="0 0 128 128"><defs><linearGradient id="copperGrad" x1="0%" x2="100%" y1="0%" y2="100%"><stop offset="0%" style="stop-color:#d97706"/><stop offset="50%" style="stop-color:#b45309"/><stop offset="100%" style="stop-color:#92400e"/></linearGradient><linearGradient id="bronzeGrad" x1="0%" x2="100%" y1="0%" y2="100%"><stop offset="0%" style="stop-color:#ca8a04"/><stop offset="100%" style="stop-color:#a16207"/></linearGradient><linearGradient id="steelGrad" x1="0%" x2="0%" y1="0%" y2="100%"><stop offset="0%" style="stop-color:#1e293b"/><stop offset="100%" style="stop-color:#0f172a"/></linearGradient></defs><rect width="120" height="120" x="4" y="4" fill="#1e293b" stroke="#334155" stroke-width="1.5" rx="8"/><rect width="120" height="18" x="4" y="4" fill="#0f172a" rx="8"/><rect width="120" height="8" x="4" y="14" fill="#0f172a"/><circle cx="16" cy="13" r="3" fill="#ef4444"/><circle cx="26" cy="13" r="3" fill="#eab308"/><circle cx="36" cy="13" r="3" fill="#22c55e"/><g transform="translate(64, 72)"><polygon fill="#0f172a" stroke="url(#copperGrad)" stroke-width="2" points="0 -40 35 -20 35 20 0 40 -35 20 -35 -20"/><path stroke="#475569" stroke-width="1" d="M0,-32 L0,-20 M-25,-10 L-14,-10 M25,-10 L14,-10 M-25,10 L-14,10 M25,10 L14,10 M0,20 L0,32"/><circle cx="0" cy="-20" r="1.5" fill="#64748b"/><circle cx="-14" cy="-10" r="1.5" fill="#64748b"/><circle cx="14" cy="-10" r="1.5" fill="#64748b"/><circle cx="-14" cy="10" r="1.5" fill="#64748b"/><circle cx="14" cy="10" r="1.5" fill="#64748b"/><circle cx="0" cy="20" r="1.5" fill="#64748b"/><path fill="url(#bronzeGrad)" stroke="#a16207" stroke-width=".5" d="M-16,16 L-16,-4 L-8,-12 L0,-4 L8,-12 L16,-4 L16,16 Z"/><circle cx="0" cy="-46" r="4.5" fill="#0d9488" stroke="#115e59" stroke-width="1"/><path stroke="#0d9488" stroke-dasharray="3 2" stroke-width="1.5" d="M0,-41.5 L0,-32"/><circle cx="42" cy="0" r="4.5" fill="#0d9488" stroke="#115e59" stroke-width="1"/><path stroke="#0d9488" stroke-dasharray="3 2" stroke-width="1.5" d="M37.5,0 L25,0"/><circle cx="-42" cy="0" r="4.5" fill="#0d9488" stroke="#115e59" stroke-width="1"/><path stroke="#0d9488" stroke-dasharray="3 2" stroke-width="1.5" d="M-37.5,0 L-25,0"/><circle cx="26" cy="38" r="3" fill="#0d9488" stroke="#115e59" stroke-width=".75"/><path stroke="#0d9488" stroke-dasharray="3 2" stroke-width="1" d="M23.5,35.5 L16,26"/><circle cx="-26" cy="38" r="3" fill="#0d9488" stroke="#115e59" stroke-width=".75"/><path stroke="#0d9488" stroke-dasharray="3 2" stroke-width="1" d="M-23.5,35.5 L-16,26"/></g></svg>